<svg xmlns="http://www.w3.org/2000/svg" width="250" height="248.526" viewBox="0 0 66.1 65.71"><g style="fill:#ececec;stroke-width:0;stroke-miterlimit:4;stroke-dasharray:none" transform="matrix(.97441 0 0 .97441 1.562 1.173)"><rect width="66.1" height="66.1" x=".132" y=".132" fill="#ffd42a" paint-order="stroke fill markers" rx="5.644" ry="5.644" style="fill:#ececec;fill-opacity:1;stroke:#000;stroke-width:0;stroke-miterlimit:4;stroke-dasharray:none;stroke-opacity:1"></rect><path fill="#fff" d="M13.732 12.432c-.4 0-.8.3-.8.7v5.1l.1.3v22.7a3 3 0 0 0 3 2.9h33.5a3 3 0 0 0 3-3v-21.9a3 3 0 0 0-3-3h-17.2v-3.1c0-.4-.4-.7-.8-.7z" paint-order="stroke fill markers" style="fill:#ececec;stroke:#000;stroke-width:0;stroke-miterlimit:4;stroke-dasharray:none;stroke-opacity:1"></path><rect width="46.3" height="3.2" x="10.532" y="49.132" fill="#fff" paint-order="stroke fill markers" rx=".924" ry=".924" style="fill:#ececec;stroke:#000;stroke-width:0;stroke-miterlimit:4;stroke-dasharray:none;stroke-opacity:1"></rect><rect width="4" height="5.1" x="31.232" y="42.732" fill="#fff" paint-order="stroke fill markers" rx=".411" ry=".411" style="fill:#ececec;stroke:#000;stroke-width:0;stroke-miterlimit:4;stroke-dasharray:none;stroke-opacity:1"></rect><rect width="7.5" height="7.6" x="29.632" y="46.632" fill="#fff" paint-order="stroke fill markers" rx="2.258" ry="2.258" style="fill:#ececec;stroke:#000;stroke-width:0;stroke-miterlimit:4;stroke-dasharray:none;stroke-opacity:1"></rect><text xml:space="preserve" x="19.932" y="32.032" fill="#ffd42a" stroke-width=".3" font-family="'Arial Black'" font-size="10.6" font-weight="400" letter-spacing="0" style="line-height:1.25;-inkscape-font-specification:&quot;Arial Black, Normal&quot;;font-variant-ligatures:normal;font-variant-caps:normal;font-variant-numeric:normal;font-feature-settings:normal;text-align:start;fill:#ececec;stroke:#000;stroke-width:0;stroke-miterlimit:4;stroke-dasharray:none;stroke-opacity:1" word-spacing="0"><tspan x="19.932" y="32.032" style="-inkscape-font-specification:&quot;Arial Black, Normal&quot;;font-variant-ligatures:normal;font-variant-caps:normal;font-variant-numeric:normal;font-feature-settings:normal;text-align:start;fill:#ececec;stroke:#000;stroke-width:0;stroke-miterlimit:4;stroke-dasharray:none;stroke-opacity:1">SMB</tspan></text></g><g style="stroke-width:1.02626" transform="matrix(.97441 0 0 .97441 .003 .003)"><rect width="66.1" height="66.1" x=".132" y=".132" fill="#ffd42a" paint-order="stroke fill markers" rx="5.644" ry="5.644" style="fill:#ffd42a;fill-opacity:1;stroke:#000;stroke-width:.271342;stroke-miterlimit:4;stroke-dasharray:none;stroke-opacity:1"></rect><path fill="#fff" stroke="#ffd42a" stroke-linecap="square" d="M13.732 12.432c-.4 0-.8.3-.8.7v5.1l.1.3v22.7a3 3 0 0 0 3 2.9h33.5a3 3 0 0 0 3-3v-21.9a3 3 0 0 0-3-3h-17.2v-3.1c0-.4-.4-.7-.8-.7z" paint-order="stroke fill markers" style="stroke:#000;stroke-width:.271342;stroke-miterlimit:4;stroke-dasharray:none;stroke-opacity:1"></path><rect width="46.3" height="3.2" x="10.532" y="49.132" fill="#fff" stroke="#ffd42a" stroke-linecap="square" paint-order="stroke fill markers" rx=".924" ry=".924" style="stroke:#000;stroke-width:.271342;stroke-miterlimit:4;stroke-dasharray:none;stroke-opacity:1"></rect><rect width="4" height="5.1" x="31.232" y="42.732" fill="#fff" paint-order="stroke fill markers" rx=".411" ry=".411" style="stroke:#000;stroke-width:.271342;stroke-miterlimit:4;stroke-dasharray:none;stroke-opacity:1"></rect><rect width="7.5" height="7.6" x="29.632" y="46.632" fill="#fff" paint-order="stroke fill markers" rx="2.258" ry="2.258" style="stroke:#000;stroke-width:.271342;stroke-miterlimit:4;stroke-dasharray:none;stroke-opacity:1"></rect><text xml:space="preserve" x="19.932" y="32.032" fill="#ffd42a" stroke-width=".3" font-family="'Arial Black'" font-size="10.6" font-weight="400" letter-spacing="0" style="line-height:1.25;-inkscape-font-specification:&quot;Arial Black, Normal&quot;;font-variant-ligatures:normal;font-variant-caps:normal;font-variant-numeric:normal;font-feature-settings:normal;text-align:start;stroke:#000;stroke-width:.271342;stroke-miterlimit:4;stroke-dasharray:none;stroke-opacity:1" word-spacing="0"><tspan x="19.932" y="32.032" style="-inkscape-font-specification:&quot;Arial Black, Normal&quot;;font-variant-ligatures:normal;font-variant-caps:normal;font-variant-numeric:normal;font-feature-settings:normal;text-align:start;stroke:#000;stroke-width:.271342;stroke-miterlimit:4;stroke-dasharray:none;stroke-opacity:1">SMB</tspan></text></g></svg>