<svg xmlns="http://www.w3.org/2000/svg" width="250" height="187.998" viewBox="0 0 66.146 49.741"><defs><linearGradient id="c"><stop offset="0" style="stop-color:green;stop-opacity:1"></stop><stop offset="1" style="stop-color:#314331;stop-opacity:0"></stop></linearGradient><linearGradient id="b"><stop offset="0" style="stop-color:#4d4d4d;stop-opacity:1"></stop></linearGradient><linearGradient id="a"><stop offset="0" style="stop-color:#b3b3b3;stop-opacity:1"></stop></linearGradient></defs><g style="fill:#488a48;stroke-width:.612716;fill-opacity:1;fill-rule:nonzero"><path d="m11.708-1.39.699-.084 1.003.153 1.741.819V.502l-1.74.819-1.004.153-.699-.083-.359 1.805.677.19.869.526 1.295 1.422-.384.928-1.922.09-.986-.243-.613-.343-1.022 1.53.552.435.601.818.652 1.81-.71.71-1.81-.653-.817-.601-.435-.552-1.53 1.022.343.613.243.986-.09 1.922-.928.384-1.422-1.295-.526-.869-.19-.677-1.805.36.083.698-.153 1.003-.819 1.741H-.502l-.819-1.74-.153-1.004.083-.699-1.805-.359-.19.677-.526.869-1.422 1.295-.928-.384-.09-1.922.243-.986.343-.613-1.53-1.022-.435.552-.818.601-1.81.653-.71-.71.653-1.81.601-.818.552-.435-1.022-1.53-.613.343-.986.243-1.922-.09-.384-.928 1.295-1.422.869-.526.677-.19-.36-1.805-.698.083-1.003-.153-1.741-.819V-.502l1.74-.819 1.004-.153.699.083.359-1.805-.677-.19-.869-.526-1.295-1.422.384-.928 1.922-.09.986.243.613.343 1.022-1.53-.552-.435-.601-.818-.652-1.81.71-.71 1.81.653.817.601.435.552 1.53-1.022-.343-.613-.243-.986.09-1.922.928-.384 1.422 1.295.526.869.19.677 1.805-.36-.083-.698.153-1.003.819-1.741H.502l.819 1.74.153 1.004-.083.699 1.805.359.19-.677.526-.869 1.422-1.295.928.384.09 1.922-.243.986-.343.613 1.53 1.022.435-.552.818-.601 1.81-.652.71.71-.653 1.81-.601.817-.552.435 1.022 1.53.613-.343.986-.243 1.922.09.384.928-1.295 1.422-.869.526-.677.19z" style="fill:#488a48;stroke:#000;stroke-width:.162114;fill-opacity:1;fill-rule:nonzero" transform="matrix(1.6314 0 0 1.63276 41.296 24.87)"></path></g><ellipse cx="41.397" cy="24.676" rx="8.633" ry="8.64" style="fill:#fff;stroke:#000;stroke-width:.264582;stroke-miterlimit:4;stroke-dasharray:none;stroke-opacity:1"></ellipse><g style="fill:#4d4d4d;fill-opacity:1"><text xml:space="preserve" x="74.316" y="130.627" style="font-style:normal;font-variant:normal;font-weight:700;font-stretch:normal;font-size:29.8853px;line-height:1.25;font-family:&quot;American Typewriter&quot;;-inkscape-font-specification:&quot;American Typewriter, Bold&quot;;font-variant-ligatures:normal;font-variant-caps:normal;font-variant-numeric:normal;font-variant-east-asian:normal;fill:#4d4d4d;fill-opacity:1;stroke:#000;stroke-width:.264582;stroke-miterlimit:4;stroke-dasharray:none;stroke-opacity:1" transform="matrix(.87933 0 0 1.13723 -64.447 -121.102)"><tspan x="74.316" y="130.627" style="font-style:normal;font-variant:normal;font-weight:700;font-stretch:normal;font-size:29.8853px;font-family:&quot;American Typewriter&quot;;-inkscape-font-specification:&quot;American Typewriter, Bold&quot;;font-variant-ligatures:normal;font-variant-caps:normal;font-variant-numeric:normal;font-variant-east-asian:normal;fill:#4d4d4d;fill-opacity:1;stroke:#000;stroke-width:.264582;stroke-miterlimit:4;stroke-dasharray:none;stroke-opacity:1">API</tspan></text></g><g style="fill:#e6e6e6;fill-opacity:1"><text xml:space="preserve" x="74.316" y="130.627" style="font-style:normal;font-variant:normal;font-weight:700;font-stretch:normal;font-size:29.8853px;line-height:1.25;font-family:&quot;American Typewriter&quot;;-inkscape-font-specification:&quot;American Typewriter, Bold&quot;;font-variant-ligatures:normal;font-variant-caps:normal;font-variant-numeric:normal;font-variant-east-asian:normal;fill:#e6e6e6;fill-opacity:1;stroke:#000;stroke-width:.264582;stroke-miterlimit:4;stroke-dasharray:none;stroke-opacity:1" transform="matrix(.87933 0 0 1.13723 -65.335 -121.635)"><tspan x="74.316" y="130.627" style="font-style:normal;font-variant:normal;font-weight:700;font-stretch:normal;font-size:29.8853px;font-family:&quot;American Typewriter&quot;;-inkscape-font-specification:&quot;American Typewriter, Bold&quot;;font-variant-ligatures:normal;font-variant-caps:normal;font-variant-numeric:normal;font-variant-east-asian:normal;fill:#e6e6e6;fill-opacity:1;stroke:#000;stroke-width:.264582;stroke-miterlimit:4;stroke-dasharray:none;stroke-opacity:1">API</tspan></text></g></svg>