<svg xmlns="http://www.w3.org/2000/svg" width="250" height="269.7" viewBox="0 0 66.1 71.3"><defs><clipPath clipPathUnits="userSpaceOnUse" id="a"><ellipse cx="-290.7" cy="75.1" rx="394.2" ry="425.2" fill="#0cf" stroke="#000" stroke-width=".4" paint-order="stroke fill markers"></ellipse></clipPath></defs><g transform="matrix(.0839 0 0 .0839 57.5 29.4)" clip-path="url(#a)" stroke-width=".1" stroke="#000" paint-order="stroke fill markers"><path d="M-708.6-557.9c390.2-354.9 436.5 555.6 859.3 0v400.5h-859.3z" fill="#0cf"></path><path d="M-709.3-351.5c390.1-355 436.4 555.5 859.2 0V49h-859.2z" fill="#08a"></path><path d="M-709.3-136.8c390.1-355 436.4 555.5 859.2 0v400.5h-859.2z" fill="#006680"></path><path d="M-707.8 75.6c390.1-355 436.4 555.6 859.2 0v400.5h-859.2z" fill="#045"></path><path d="M-708.2 290.4c390.2-355 436.4 555.6 859.2 0v400.5h-859.2z" fill="#00222b"></path></g><text xml:space="preserve" style="line-height:1.25;-inkscape-font-specification:'Arial Black, Normal';font-variant-ligatures:normal;font-variant-caps:normal;font-variant-numeric:normal;font-feature-settings:normal;text-align:start" x="14.5" y="41" transform="scale(.9875 1.01266)" font-weight="400" font-size="16" font-family="Arial Black" letter-spacing="0" word-spacing="0" fill="#d5f6ff" stroke-width=".3"><tspan x="14.5" y="41" style="-inkscape-font-specification:'Arial Black, Normal';font-variant-ligatures:normal;font-variant-caps:normal;font-variant-numeric:normal;font-feature-settings:normal;text-align:start">DNS</tspan></text></svg>