<svg xmlns="http://www.w3.org/2000/svg" 
width="250" height="232.5" viewBox="0 0 66.1 61.5"><g transform="translate(464.5 -198.8)" stroke="#000"><ellipse cx="-424.5" cy="206.4" rx="7.5" ry="7.6" fill="navy" stroke-width=".2" paint-order="stroke fill markers"></ellipse><circle cx="-405.6" cy="221.4" fill="#00aad4" stroke-width=".2" paint-order="stroke fill markers" r="7.2"></circle><path d="M-647.1-3.1-496.7 111" transform="matrix(.05675 0 0 .05684 -383.8 212.9)" fill="none" stroke-width="3.5"></path><ellipse cx="-454.1" cy="215.3" rx="7.6" ry="7.8" fill="#250" stroke-width=".3" paint-order="stroke fill markers"></ellipse><path d="M-1028.1 59.6-817.9-25" transform="matrix(.07623 0 0 .04064 -368 211.5)" fill="none" stroke-width="3.6"></path><circle cx="-432.6" cy="229.1" fill="#aa00d4" stroke-width=".2" paint-order="stroke fill markers" r="7.5"></circle><path d="m-729.5 46.8 152.7 92.2" transform="matrix(.05675 0 0 .05684 -406.1 216.6)" fill="none" stroke-width="3.5"></path><path d="m-388.6 164 274.5-43.1" transform="matrix(.0473 0 0 .05684 -407.2 216.6)" fill="none" stroke-width="3.5"></path><circle cx="-456.4" cy="241.2" fill="#b60000" stroke-width=".3" paint-order="stroke fill markers" r="8"></circle><circle cx="-431.5" cy="252.6" fill="#d4aa00" stroke-width=".2" paint-order="stroke fill markers" r="7.5"></circle><path d="m-759 73.2 248 435.5M-419.6-71.9l-349.2 409" transform="matrix(.05675 0 0 .05684 -406.1 216.6)" fill="none" stroke-width="3.5"></path><path d="m-756.7 452.7 218.5 112" transform="matrix(.05041 0 0 .05087 -410.4 219.6)" fill="none" stroke-width="3.5"></path><path d="m-370.4 520 272.9-350" transform="matrix(.05675 0 0 .05684 -406.1 216.6)" fill="none" stroke-width="3.5"></path><path d="m-486.8 272.8 23.4 213.2" transform="matrix(.05675 0 0 .03379 -406.1 227.8)" fill="none" stroke-width="3.5"></path></g></svg>