<svg xmlns="http://www.w3.org/2000/svg" width="250" height="282.581" viewBox="0 0 66.1 74.72"><path fill="#a00" d="M1.359.613v74.024h19.285V.613ZM5.14 5.718h11.534v40.18H5.14Zm5.673 55.59a4.254 4.254 0 0 1 .472 0 4.254 4.254 0 0 1 .378.094 4.254 4.254 0 0 1 .473.094 4.254 4.254 0 0 1 .378.19 4.254 4.254 0 0 1 .378.189 4.254 4.254 0 0 1 .379.189 4.254 4.254 0 0 1 .378.283 4.254 4.254 0 0 1 .283.284 4.254 4.254 0 0 1 .284.378 4.254 4.254 0 0 1 .284.284 4.254 4.254 0 0 1 .189.378 4.254 4.254 0 0 1 .189.378 4.254 4.254 0 0 1 .094.473 4.254 4.254 0 0 1 .095.378 4.254 4.254 0 0 1 0 .472 4.254 4.254 0 0 1 0 .284 4.254 4.254 0 0 1 0 .378 4.254 4.254 0 0 1 0 .473 4.254 4.254 0 0 1-.095.378 4.254 4.254 0 0 1-.189.473 4.254 4.254 0 0 1-.189.378 4.254 4.254 0 0 1-.189.378 4.254 4.254 0 0 1-.284.284 4.254 4.254 0 0 1-.283.283 4.254 4.254 0 0 1-.284.284 4.254 4.254 0 0 1-.378.284 4.254 4.254 0 0 1-.378.189 4.254 4.254 0 0 1-.378.189 4.254 4.254 0 0 1-.378.189 4.254 4.254 0 0 1-.473 0 4.254 4.254 0 0 1-.378.094 4.254 4.254 0 0 1-.378 0 4.254 4.254 0 0 1-.379 0 4.254 4.254 0 0 1-.472 0 4.254 4.254 0 0 1-.378-.189 4.254 4.254 0 0 1-.379-.094 4.254 4.254 0 0 1-.378-.19 4.254 4.254 0 0 1-.378-.283 4.254 4.254 0 0 1-.378-.189 4.254 4.254 0 0 1-.095-.378 4.254 4.254 0 0 1-.283-.284 4.254 4.254 0 0 1-.284-.378 4.254 4.254 0 0 1-.189-.378 4.254 4.254 0 0 1-.189-.378 4.254 4.254 0 0 1-.094-.378 4.254 4.254 0 0 1-.095-.379 4.254 4.254 0 0 1-.094-.472 4.254 4.254 0 0 1 0-.284 4.254 4.254 0 0 1 0-.473 4.254 4.254 0 0 1 0-.378 4.254 4.254 0 0 1 .189-.472 4.254 4.254 0 0 1 .189-.379 4.254 4.254 0 0 1 .189-.378 4.254 4.254 0 0 1 .189-.378 4.254 4.254 0 0 1 .283-.284 4.254 4.254 0 0 1 .284-.378 4.254 4.254 0 0 1 .284-.283 4.254 4.254 0 0 1 .378-.19 4.254 4.254 0 0 1 .378-.283 4.254 4.254 0 0 1 .378-.19 4.254 4.254 0 0 1 .378-.094 4.254 4.254 0 0 1 .473-.094 4.254 4.254 0 0 1 .378 0 4.254 4.254 0 0 1 .284 0z" style="fill:#ccc;stroke:none;stroke-width:.264418;stroke-miterlimit:4;stroke-dasharray:none;stroke-opacity:1;paint-order:stroke fill markers"></path><path fill="#a00" d="M.13.235v74.024h19.285V.235ZM3.91 5.34h11.534v40.18H3.91Zm5.673 55.59a4.254 4.254 0 0 1 .472 0 4.254 4.254 0 0 1 .378.094 4.254 4.254 0 0 1 .473.094 4.254 4.254 0 0 1 .378.19 4.254 4.254 0 0 1 .378.188 4.254 4.254 0 0 1 .379.19 4.254 4.254 0 0 1 .378.283 4.254 4.254 0 0 1 .283.284 4.254 4.254 0 0 1 .284.378 4.254 4.254 0 0 1 .284.283 4.254 4.254 0 0 1 .189.379 4.254 4.254 0 0 1 .189.378 4.254 4.254 0 0 1 .094.472 4.254 4.254 0 0 1 .095.379 4.254 4.254 0 0 1 0 .472 4.254 4.254 0 0 1 0 .284 4.254 4.254 0 0 1 0 .378 4.254 4.254 0 0 1 0 .473 4.254 4.254 0 0 1-.095.378 4.254 4.254 0 0 1-.189.473 4.254 4.254 0 0 1-.189.378 4.254 4.254 0 0 1-.189.378 4.254 4.254 0 0 1-.284.284 4.254 4.254 0 0 1-.283.283 4.254 4.254 0 0 1-.284.284 4.254 4.254 0 0 1-.378.283 4.254 4.254 0 0 1-.378.19 4.254 4.254 0 0 1-.378.189 4.254 4.254 0 0 1-.378.189 4.254 4.254 0 0 1-.473 0 4.254 4.254 0 0 1-.378.094 4.254 4.254 0 0 1-.378 0 4.254 4.254 0 0 1-.379 0 4.254 4.254 0 0 1-.472 0 4.254 4.254 0 0 1-.378-.189 4.254 4.254 0 0 1-.379-.094 4.254 4.254 0 0 1-.378-.19 4.254 4.254 0 0 1-.378-.283 4.254 4.254 0 0 1-.378-.19 4.254 4.254 0 0 1-.094-.377 4.254 4.254 0 0 1-.284-.284 4.254 4.254 0 0 1-.284-.378 4.254 4.254 0 0 1-.189-.378 4.254 4.254 0 0 1-.189-.378 4.254 4.254 0 0 1-.094-.379 4.254 4.254 0 0 1-.095-.378 4.254 4.254 0 0 1-.094-.472 4.254 4.254 0 0 1 0-.284 4.254 4.254 0 0 1 0-.473 4.254 4.254 0 0 1 0-.378 4.254 4.254 0 0 1 .189-.473 4.254 4.254 0 0 1 .189-.378 4.254 4.254 0 0 1 .189-.378 4.254 4.254 0 0 1 .189-.378 4.254 4.254 0 0 1 .283-.284 4.254 4.254 0 0 1 .284-.378 4.254 4.254 0 0 1 .284-.283 4.254 4.254 0 0 1 .378-.19 4.254 4.254 0 0 1 .378-.283 4.254 4.254 0 0 1 .378-.19 4.254 4.254 0 0 1 .378-.094 4.254 4.254 0 0 1 .473-.094 4.254 4.254 0 0 1 .378 0 4.254 4.254 0 0 1 .284 0z" style="stroke:#000;stroke-width:.264418;stroke-miterlimit:4;stroke-dasharray:none;stroke-opacity:1;paint-order:stroke fill markers"></path><path fill="#a00" d="M24.174.51v74.025H43.46V.51Zm3.782 5.105h11.533v40.18H27.956Zm5.672 55.59a4.254 4.254 0 0 1 .473 0 4.254 4.254 0 0 1 .378.094 4.254 4.254 0 0 1 .472.095 4.254 4.254 0 0 1 .379.189 4.254 4.254 0 0 1 .378.189 4.254 4.254 0 0 1 .378.189 4.254 4.254 0 0 1 .378.284 4.254 4.254 0 0 1 .284.283 4.254 4.254 0 0 1 .283.378 4.254 4.254 0 0 1 .284.284 4.254 4.254 0 0 1 .189.378 4.254 4.254 0 0 1 .189.378 4.254 4.254 0 0 1 .094.473 4.254 4.254 0 0 1 .095.378 4.254 4.254 0 0 1 0 .473 4.254 4.254 0 0 1 0 .284 4.254 4.254 0 0 1 0 .378 4.254 4.254 0 0 1 0 .472 4.254 4.254 0 0 1-.095.379 4.254 4.254 0 0 1-.189.472 4.254 4.254 0 0 1-.189.378 4.254 4.254 0 0 1-.189.379 4.254 4.254 0 0 1-.283.283 4.254 4.254 0 0 1-.284.284 4.254 4.254 0 0 1-.284.283 4.254 4.254 0 0 1-.378.284 4.254 4.254 0 0 1-.378.19 4.254 4.254 0 0 1-.378.188 4.254 4.254 0 0 1-.378.19 4.254 4.254 0 0 1-.473 0 4.254 4.254 0 0 1-.378.094 4.254 4.254 0 0 1-.378 0 4.254 4.254 0 0 1-.378 0 4.254 4.254 0 0 1-.473 0 4.254 4.254 0 0 1-.378-.19 4.254 4.254 0 0 1-.378-.094 4.254 4.254 0 0 1-.378-.189 4.254 4.254 0 0 1-.379-.284 4.254 4.254 0 0 1-.378-.189 4.254 4.254 0 0 1-.094-.378 4.254 4.254 0 0 1-.284-.283 4.254 4.254 0 0 1-.283-.379 4.254 4.254 0 0 1-.19-.378 4.254 4.254 0 0 1-.189-.378 4.254 4.254 0 0 1-.094-.378 4.254 4.254 0 0 1-.095-.378 4.254 4.254 0 0 1-.094-.473 4.254 4.254 0 0 1 0-.283 4.254 4.254 0 0 1 0-.473 4.254 4.254 0 0 1 0-.378 4.254 4.254 0 0 1 .189-.473 4.254 4.254 0 0 1 .189-.378 4.254 4.254 0 0 1 .189-.378 4.254 4.254 0 0 1 .19-.379 4.254 4.254 0 0 1 .283-.283 4.254 4.254 0 0 1 .283-.378 4.254 4.254 0 0 1 .284-.284 4.254 4.254 0 0 1 .378-.189 4.254 4.254 0 0 1 .378-.284 4.254 4.254 0 0 1 .378-.189 4.254 4.254 0 0 1 .378-.094 4.254 4.254 0 0 1 .473-.095 4.254 4.254 0 0 1 .378 0 4.254 4.254 0 0 1 .284 0z" style="fill:#ccc;stroke:none;stroke-width:.264418;stroke-miterlimit:4;stroke-dasharray:none;stroke-opacity:1;paint-order:stroke fill markers"></path><path fill="#a00" d="M22.945.132v74.025h19.286V.132Zm3.782 5.105H38.26v40.18H26.727Zm5.672 55.59a4.254 4.254 0 0 1 .473 0 4.254 4.254 0 0 1 .378.094 4.254 4.254 0 0 1 .472.095 4.254 4.254 0 0 1 .379.189 4.254 4.254 0 0 1 .378.189 4.254 4.254 0 0 1 .378.189 4.254 4.254 0 0 1 .378.283 4.254 4.254 0 0 1 .284.284 4.254 4.254 0 0 1 .283.378 4.254 4.254 0 0 1 .284.284 4.254 4.254 0 0 1 .189.378 4.254 4.254 0 0 1 .189.378 4.254 4.254 0 0 1 .095.473 4.254 4.254 0 0 1 .094.378 4.254 4.254 0 0 1 0 .473 4.254 4.254 0 0 1 0 .283 4.254 4.254 0 0 1 0 .379 4.254 4.254 0 0 1 0 .472 4.254 4.254 0 0 1-.094.378 4.254 4.254 0 0 1-.19.473 4.254 4.254 0 0 1-.189.378 4.254 4.254 0 0 1-.189.378 4.254 4.254 0 0 1-.283.284 4.254 4.254 0 0 1-.284.284 4.254 4.254 0 0 1-.284.283 4.254 4.254 0 0 1-.378.284 4.254 4.254 0 0 1-.378.189 4.254 4.254 0 0 1-.378.189 4.254 4.254 0 0 1-.378.19 4.254 4.254 0 0 1-.473 0 4.254 4.254 0 0 1-.378.094 4.254 4.254 0 0 1-.378 0 4.254 4.254 0 0 1-.378 0 4.254 4.254 0 0 1-.473 0 4.254 4.254 0 0 1-.378-.19 4.254 4.254 0 0 1-.378-.094 4.254 4.254 0 0 1-.378-.19 4.254 4.254 0 0 1-.379-.283 4.254 4.254 0 0 1-.378-.189 4.254 4.254 0 0 1-.094-.378 4.254 4.254 0 0 1-.284-.284 4.254 4.254 0 0 1-.283-.378 4.254 4.254 0 0 1-.19-.378 4.254 4.254 0 0 1-.189-.378 4.254 4.254 0 0 1-.094-.378 4.254 4.254 0 0 1-.095-.378 4.254 4.254 0 0 1-.094-.473 4.254 4.254 0 0 1 0-.284 4.254 4.254 0 0 1 0-.472 4.254 4.254 0 0 1 0-.378 4.254 4.254 0 0 1 .189-.473 4.254 4.254 0 0 1 .189-.378 4.254 4.254 0 0 1 .189-.379 4.254 4.254 0 0 1 .19-.378 4.254 4.254 0 0 1 .283-.283 4.254 4.254 0 0 1 .283-.378 4.254 4.254 0 0 1 .284-.284 4.254 4.254 0 0 1 .378-.19 4.254 4.254 0 0 1 .378-.283 4.254 4.254 0 0 1 .378-.189 4.254 4.254 0 0 1 .379-.094 4.254 4.254 0 0 1 .472-.095 4.254 4.254 0 0 1 .378 0 4.254 4.254 0 0 1 .284 0z" style="fill:green;stroke:#000;stroke-width:.264418;stroke-miterlimit:4;stroke-dasharray:none;stroke-opacity:1;paint-order:stroke fill markers"></path><path fill="#a00" d="M46.817.695V74.72h19.285V.695ZM50.598 5.8h11.534v40.18H50.598Zm5.672 55.59a4.254 4.254 0 0 1 .473 0 4.254 4.254 0 0 1 .378.094 4.254 4.254 0 0 1 .473.095 4.254 4.254 0 0 1 .378.189 4.254 4.254 0 0 1 .378.189 4.254 4.254 0 0 1 .378.189 4.254 4.254 0 0 1 .379.283 4.254 4.254 0 0 1 .283.284 4.254 4.254 0 0 1 .284.378 4.254 4.254 0 0 1 .283.284 4.254 4.254 0 0 1 .19.378 4.254 4.254 0 0 1 .188.378 4.254 4.254 0 0 1 .095.473 4.254 4.254 0 0 1 .095.378 4.254 4.254 0 0 1 0 .473 4.254 4.254 0 0 1 0 .283 4.254 4.254 0 0 1 0 .378 4.254 4.254 0 0 1 0 .473 4.254 4.254 0 0 1-.095.378 4.254 4.254 0 0 1-.19.473 4.254 4.254 0 0 1-.188.378 4.254 4.254 0 0 1-.19.378 4.254 4.254 0 0 1-.283.284 4.254 4.254 0 0 1-.283.284 4.254 4.254 0 0 1-.284.283 4.254 4.254 0 0 1-.378.284 4.254 4.254 0 0 1-.378.189 4.254 4.254 0 0 1-.378.189 4.254 4.254 0 0 1-.379.19 4.254 4.254 0 0 1-.472 0 4.254 4.254 0 0 1-.378.094 4.254 4.254 0 0 1-.379 0 4.254 4.254 0 0 1-.378 0 4.254 4.254 0 0 1-.472 0 4.254 4.254 0 0 1-.379-.19 4.254 4.254 0 0 1-.378-.094 4.254 4.254 0 0 1-.378-.19 4.254 4.254 0 0 1-.378-.283 4.254 4.254 0 0 1-.378-.189 4.254 4.254 0 0 1-.095-.378 4.254 4.254 0 0 1-.283-.284 4.254 4.254 0 0 1-.284-.378 4.254 4.254 0 0 1-.189-.378 4.254 4.254 0 0 1-.19-.378 4.254 4.254 0 0 1-.094-.378 4.254 4.254 0 0 1-.094-.378 4.254 4.254 0 0 1-.095-.473 4.254 4.254 0 0 1 0-.284 4.254 4.254 0 0 1 0-.472 4.254 4.254 0 0 1 0-.379 4.254 4.254 0 0 1 .19-.472 4.254 4.254 0 0 1 .188-.378 4.254 4.254 0 0 1 .19-.379 4.254 4.254 0 0 1 .189-.378 4.254 4.254 0 0 1 .283-.283 4.254 4.254 0 0 1 .284-.378 4.254 4.254 0 0 1 .283-.284 4.254 4.254 0 0 1 .379-.19 4.254 4.254 0 0 1 .378-.283 4.254 4.254 0 0 1 .378-.189 4.254 4.254 0 0 1 .378-.094 4.254 4.254 0 0 1 .473-.095 4.254 4.254 0 0 1 .378 0 4.254 4.254 0 0 1 .283 0z" style="fill:#ccc;stroke:none;stroke-width:.264418;stroke-miterlimit:4;stroke-dasharray:none;stroke-opacity:1;paint-order:stroke fill markers"></path><path fill="#a00" d="M45.588.317v74.024h19.285V.317Zm3.781 5.105h11.534v40.18H49.369Zm5.672 55.59a4.254 4.254 0 0 1 .473 0 4.254 4.254 0 0 1 .378.094 4.254 4.254 0 0 1 .473.094 4.254 4.254 0 0 1 .378.19 4.254 4.254 0 0 1 .378.189 4.254 4.254 0 0 1 .378.189 4.254 4.254 0 0 1 .379.283 4.254 4.254 0 0 1 .283.284 4.254 4.254 0 0 1 .284.378 4.254 4.254 0 0 1 .283.284 4.254 4.254 0 0 1 .19.378 4.254 4.254 0 0 1 .189.378 4.254 4.254 0 0 1 .094.473 4.254 4.254 0 0 1 .095.378 4.254 4.254 0 0 1 0 .473 4.254 4.254 0 0 1 0 .283 4.254 4.254 0 0 1 0 .378 4.254 4.254 0 0 1 0 .473 4.254 4.254 0 0 1-.095.378 4.254 4.254 0 0 1-.189.473 4.254 4.254 0 0 1-.19.378 4.254 4.254 0 0 1-.188.378 4.254 4.254 0 0 1-.284.284 4.254 4.254 0 0 1-.283.283 4.254 4.254 0 0 1-.284.284 4.254 4.254 0 0 1-.378.284 4.254 4.254 0 0 1-.378.189 4.254 4.254 0 0 1-.378.189 4.254 4.254 0 0 1-.379.189 4.254 4.254 0 0 1-.472 0 4.254 4.254 0 0 1-.378.094 4.254 4.254 0 0 1-.379 0 4.254 4.254 0 0 1-.378 0 4.254 4.254 0 0 1-.472 0 4.254 4.254 0 0 1-.379-.189 4.254 4.254 0 0 1-.378-.094 4.254 4.254 0 0 1-.378-.19 4.254 4.254 0 0 1-.378-.283 4.254 4.254 0 0 1-.378-.189 4.254 4.254 0 0 1-.095-.378 4.254 4.254 0 0 1-.283-.284 4.254 4.254 0 0 1-.284-.378 4.254 4.254 0 0 1-.189-.378 4.254 4.254 0 0 1-.19-.378 4.254 4.254 0 0 1-.094-.378 4.254 4.254 0 0 1-.094-.379 4.254 4.254 0 0 1-.095-.472 4.254 4.254 0 0 1 0-.284 4.254 4.254 0 0 1 0-.473 4.254 4.254 0 0 1 0-.378 4.254 4.254 0 0 1 .19-.472 4.254 4.254 0 0 1 .188-.379 4.254 4.254 0 0 1 .19-.378 4.254 4.254 0 0 1 .189-.378 4.254 4.254 0 0 1 .283-.283 4.254 4.254 0 0 1 .284-.379 4.254 4.254 0 0 1 .283-.283 4.254 4.254 0 0 1 .379-.19 4.254 4.254 0 0 1 .378-.283 4.254 4.254 0 0 1 .378-.189 4.254 4.254 0 0 1 .378-.095 4.254 4.254 0 0 1 .473-.094 4.254 4.254 0 0 1 .378 0 4.254 4.254 0 0 1 .283 0z" style="fill:navy;stroke:#000;stroke-width:.264418;stroke-miterlimit:4;stroke-dasharray:none;stroke-opacity:1;paint-order:stroke fill markers"></path></svg>