<svg xmlns="http://www.w3.org/2000/svg" width="250" height="228.752" fill="none"><path fill="#e7e3e6" d="M231.662 205.499H18.338C8.21 205.499 0 197.289 0 187.162V18.338C0 8.21 8.21 0 18.338 0h213.324C241.79 0 250 8.21 250 18.338v168.824c0 10.128-8.21 18.337-18.338 18.337z" style="stroke-width:1"></path><path fill="#85bd57" d="M84.124 72.254c-.58.475-.872 1.11-.872 1.897 0 .789.356 1.414 1.065 1.88.711.464 2.352 1.012 4.922 1.646 2.568.634 4.564 1.58 5.985 2.849 1.42 1.263 2.13 3.11 2.13 5.539s-.91 4.4-2.73 5.907c-1.82 1.512-4.218 2.266-7.186 2.266-4.288 0-8.15-1.585-11.586-4.763l3.603-4.417c2.92 2.557 5.618 3.834 8.098 3.834 1.11 0 1.982-.236 2.616-.715.632-.48.949-1.123.949-1.937 0-.814-.337-1.46-1.007-1.936-.673-.48-2.003-.964-3.99-1.457-3.153-.745-5.458-1.722-6.917-2.921-1.46-1.204-2.189-3.089-2.189-5.66 0-2.57.923-4.553 2.77-5.945 1.846-1.397 4.15-2.095 6.916-2.095 1.808 0 3.616.313 5.423.934 1.808.617 3.385 1.495 4.728 2.634l-3.061 4.417c-2.35-1.782-4.779-2.673-7.285-2.673-1.007 0-1.801.236-2.382.716zm24.718 0c-.581.475-.872 1.11-.872 1.897 0 .789.356 1.414 1.065 1.88.711.464 2.352 1.012 4.922 1.646 2.568.634 4.564 1.58 5.984 2.849 1.42 1.263 2.132 3.11 2.132 5.539s-.911 4.4-2.731 5.907c-1.821 1.512-4.218 2.266-7.187 2.266-4.288 0-8.15-1.585-11.585-4.763l3.603-4.417c2.919 2.557 5.618 3.834 8.098 3.834 1.11 0 1.981-.236 2.615-.715.632-.48.949-1.123.949-1.937 0-.814-.336-1.46-1.006-1.936-.673-.48-2.003-.964-3.991-1.457-3.153-.745-5.457-1.722-6.916-2.921-1.461-1.204-2.189-3.089-2.189-5.66 0-2.57.923-4.553 2.769-5.945 1.847-1.397 4.151-2.095 6.917-2.095 1.807 0 3.615.313 5.423.934 1.808.617 3.384 1.495 4.727 2.634l-3.06 4.417c-2.35-1.782-4.779-2.673-7.285-2.673-1.007 0-1.802.236-2.382.716zm18.384 21.676V66.847h6.042v21.698h11.548v5.385z" style="stroke-width:.842242" transform="translate(-6 -15.832) scale(1.1873)"></path><path fill="#53b1e2" d="M250 36.595V18.338C250 8.21 241.79 0 231.662 0H18.337C8.21 0 0 8.21 0 18.338v18.257z" style="stroke-width:1"></path><path fill="#e7e3e6" d="M83.67 39.969H17.973V25.805a6.37 6.37 0 0 1 6.37-6.37H77.3a6.37 6.37 0 0 1 6.37 6.37z" style="stroke-width:1"></path><path fill="#d2d2d2" d="M149.367 36.595H83.67v-10.79a6.37 6.37 0 0 1 6.37-6.37h52.956a6.371 6.371 0 0 1 6.371 6.37z" style="stroke-width:1"></path><path fill="#e7e3e6" d="M205.364 26.9a7.03 7.03 0 1 0 0-14.059 7.03 7.03 0 0 0 0 14.059zm-21.434 0a7.03 7.03 0 1 0-.001-14.059 7.03 7.03 0 0 0 0 14.059z" style="stroke-width:1"></path><path fill="#656766" d="m194.012 174.654 12.056 54.098-24.386-13.32v-40.778z" style="stroke-width:1"></path><path fill="#4e4c4d" d="m169.35 174.654-12.054 54.098 24.386-13.32v-40.778z" style="stroke-width:1"></path><path fill="#ec6e62" d="M211.383 169.382c0 9.602-7.784 17.386-17.386 17.386l-.032.03c-6.79 6.79-17.797 6.79-24.586 0l-.032-.03c-9.602 0-17.386-7.784-17.386-17.386v-.046c-6.78-6.781-6.78-17.776 0-24.556v-.07c0-9.59 7.775-17.362 17.364-17.362h.07c6.78-6.781 17.774-6.781 24.554 0h.048c9.602 0 17.386 7.784 17.386 17.385 6.805 6.807 6.805 17.842 0 24.649z" style="stroke-width:1"></path><path fill="#ffc966" d="M181.682 174.654c9.708 0 17.577-7.87 17.577-17.577 0-9.708-7.87-17.577-17.577-17.577s-17.577 7.87-17.577 17.577 7.87 17.577 17.577 17.577z" style="stroke-width:1"></path><path fill="#d2d2d2" d="M122.716 122.262H24.17v11.589h98.546Zm0 22.488H24.17v11.588h98.546ZM82.26 167.238H24.17v11.588h58.09z" style="stroke-width:1"></path></svg>